<?xml version="1.0" encoding="utf-8"?>
<!-- Generator: Adobe Illustrator 19.1.0, SVG Export Plug-In . SVG Version: 6.00 Build 0)  -->
<svg version="1.1" id="Слой_1" xmlns="http://www.w3.org/2000/svg" xmlns:xlink="http://www.w3.org/1999/xlink" x="0px" y="0px"
	 viewBox="202 -202.7 1000 1000" style="enable-background:new 202 -202.7 1000 1000;" xml:space="preserve">
<style type="text/css">
	.st0{fill:#8BED96;}
</style>
<path class="st0" d="M987.8,198.7c0,51.7-17.5,99.5-52.5,143.4s-82.7,78.6-143.1,104.1c-60.5,25.5-126.2,38.2-197.3,38.2
	c-32,0-64.7-3-98.2-8.9c-46.1,32.7-97.8,56.5-155.1,71.4c-13.4,3.3-29.4,6.3-48,8.9h-1.7c-4.1,0-7.9-1.5-11.4-4.5s-5.7-6.9-6.4-11.7
	c-0.4-1.1-0.6-2.3-0.6-3.6s0.1-2.5,0.3-3.6c0.2-1.1,0.6-2.2,1.1-3.3l1.4-2.8c0,0,0.7-1,2-3.1c1.3-2,2-3,2.2-2.8s1-0.7,2.5-2.8
	s2.2-2.9,2.2-2.5c1.9-2.2,6.1-6.9,12.8-14c6.7-7.1,11.5-12.6,14.5-16.5c3-3.9,7.2-9.3,12.6-16.2c5.4-6.9,10-14,13.9-21.5
	c3.9-7.4,7.7-15.6,11.4-24.6c-46.1-26.8-82.4-59.7-108.8-98.8s-39.6-80.7-39.6-125c0-51.7,17.5-99.5,52.5-143.4
	s82.7-78.4,143.2-103.9S523.9-87,595-87c71.1,0,136.8,12.7,197.3,38.2s108,60.2,143,104.1S987.8,147,987.8,198.7L987.8,198.7z
	 M1202,341.5c0,44.6-13.2,86.4-39.6,125.3s-62.7,71.7-108.8,98.5c3.7,8.9,7.5,17.1,11.4,24.6s8.6,14.6,14,21.5s9.6,12.3,12.6,16.2
	s7.8,9.4,14.5,16.5s11,11.7,12.8,14c0.4,0.4,1.1,1.2,2.2,2.5s2,2.2,2.5,2.8c0.6,0.6,1.3,1.5,2.2,2.8s1.6,2.3,2,3.1l1.4,2.8
	c0,0,0.4,1.1,1.1,3.3s0.8,3.4,0.3,3.6c-0.6,0.2-0.7,1.4-0.6,3.6c-1.1,5.2-3.5,9.3-7.3,12.3s-7.8,4.3-12.3,3.9
	c-18.6-2.6-34.6-5.6-48-8.9c-57.3-14.9-109-38.7-155.1-71.4c-33.5,6-66.2,8.9-98.2,8.9c-100.8,0-188.6-24.6-263.4-73.7
	c21.6,1.5,37.9,2.2,49.1,2.2c59.9,0,117.4-8.4,172.4-25.1s104.2-40.7,147.3-72c46.5-34.2,82.2-73.7,107.1-118.3
	c24.9-44.6,37.4-91.9,37.4-141.7c0-28.6-4.3-56.9-12.8-84.8c48,26.4,85.9,59.5,113.8,99.3S1202,295.8,1202,341.5L1202,341.5z"/>
</svg>
