<?xml version="1.0" encoding="utf-8"?>
<!-- Generator: Adobe Illustrator 19.1.0, SVG Export Plug-In . SVG Version: 6.00 Build 0)  -->
<svg version="1.1" id="Слой_1" xmlns="http://www.w3.org/2000/svg" xmlns:xlink="http://www.w3.org/1999/xlink" x="0px" y="0px"
	 viewBox="-118 -202.7 357.1 1000" style="enable-background:new -118 -202.7 357.1 1000;" xml:space="preserve">
<style type="text/css">
	.st0{fill:#FFFFFF;}
</style>
<path class="st0" d="M-105.2,320.2l260-260c3.7-3.7,8-5.6,12.8-5.6c4.8,0,9.1,1.9,12.8,5.6l27.9,27.9c3.7,3.7,5.6,8,5.6,12.8
	s-1.9,9.1-5.6,12.8L-10.9,333l219.3,219.3c3.7,3.7,5.6,8,5.6,12.8c0,4.8-1.9,9.1-5.6,12.8l-27.9,27.9c-3.7,3.7-8,5.6-12.8,5.6
	s-9.1-1.9-12.8-5.6l-260-260c-3.7-3.7-5.6-8-5.6-12.8C-110.7,328.2-108.9,323.9-105.2,320.2z"/>
</svg>
