<?xml version="1.0" encoding="utf-8"?>
<!-- Generator: Adobe Illustrator 19.1.0, SVG Export Plug-In . SVG Version: 6.00 Build 0)  -->
<svg version="1.1" id="Layer_1" xmlns="http://www.w3.org/2000/svg" xmlns:xlink="http://www.w3.org/1999/xlink" x="0px" y="0px"
	 viewBox="-41 42.3 512 512" style="enable-background:new -41 42.3 512 512;" xml:space="preserve">
<style type="text/css">
	.st0{fill:#5A66FF;}
</style>
<path class="st0" d="M215,148.9c20.6,0.1,37.3-16.6,37.3-37.3c0-20.6-16.7-37.3-37.3-37.3s-37.3,16.7-37.3,37.3
	C177.7,132.2,194.4,148.9,215,148.9z"/>
<g>
	<path class="st0" d="M252.4,157.3H215h-37.4c-28.2,0-46.6,24.8-46.6,48.4v113.6c0,22,31,22,31,0v-105h6v285.6c0,30.4,42,29.4,43,0
		V335.3h7h1V500c1.7,31.2,43,28.2,43-0.1V214.3h5v105c0,22,32,22,32,0V205.7C299,182.2,280.5,157.3,252.4,157.3z"/>
</g>
</svg>
