<?xml version="1.0" encoding="utf-8"?>
<!-- Generator: Adobe Illustrator 19.1.0, SVG Export Plug-In . SVG Version: 6.00 Build 0)  -->
<svg version="1.1" id="Layer_1" xmlns="http://www.w3.org/2000/svg" xmlns:xlink="http://www.w3.org/1999/xlink" x="0px" y="0px"
	 viewBox="-41 42.3 512 512" style="enable-background:new -41 42.3 512 512;" xml:space="preserve">
<style type="text/css">
	.st0{fill:#C366FF;}
	.st1{fill:#5A66FF;}
</style>
<g>
	<path class="st0" d="M245.3,190.8l-29.4,104.3c-6.3,22.8,20.7,31.7,27.3,10.3l26.3-96.2h7.4l-45.2,169h42.2v127c0,23,32,23,32,0
		v-127h10v127c0,23,31,23,31,0v-127h43.4l-46.2-169h8.4l26.3,96.2c6.5,21.9,33.3,12.5,27.3-10.2l-29.4-104.4
		c-4-11.8-18.2-32.6-42-33.6h-47.3C262.8,158.2,248.7,178.8,245.3,190.8z"/>
	<path class="st0" d="M347.5,111.4c0-20.6-16.4-37.3-36.6-37.3s-36.6,16.7-36.6,37.3s16.4,37.3,36.6,37.3S347.5,132,347.5,111.4z"/>
</g>
<path class="st1" d="M113,148.9c20.6,0.1,37.3-16.6,37.3-37.3c0-20.6-16.7-37.3-37.3-37.3S75.7,91,75.7,111.6
	C75.7,132.2,92.4,148.9,113,148.9z"/>
<g>
	<path class="st1" d="M150.4,157.3H113H75.6c-28.2,0-46.6,24.8-46.6,48.4v113.6c0,22,31,22,31,0v-105h6v285.6c0,30.4,42,29.4,43,0
		V335.3h7h1V500c1.7,31.2,43,28.2,43-0.1V214.3h5v105c0,22,32,22,32,0V205.7C197,182.2,178.5,157.3,150.4,157.3z"/>
</g>
</svg>
