<?xml version="1.0" encoding="utf-8"?>
<!-- Generator: Adobe Illustrator 19.1.0, SVG Export Plug-In . SVG Version: 6.00 Build 0)  -->
<svg version="1.1" id="Слой_1" xmlns="http://www.w3.org/2000/svg" xmlns:xlink="http://www.w3.org/1999/xlink" x="0px" y="0px"
	 viewBox="202 -202.7 1000 1000" style="enable-background:new 202 -202.7 1000 1000;" xml:space="preserve">
<style type="text/css">
	.st0{fill:#D99AED;}
</style>
<g>
	<path class="st0" d="M518.8-73.8c25.7,0,51.3,3.7,76,10.8c-31.4,18.8-57.9,44.3-77.1,74.3c-104.4,0.6-189.2,86.2-189.2,191.1
		c0,105.4,85.3,191.1,190.3,191.1c104.8,0,190.2-85.7,190.2-191.1c0-32.8-8.4-65-24.4-93.5c21.7-23.1,47.6-35.8,73.4-35.8
		c1.1,0,2.3,0,3.5,0.1c21.1,39.7,32.1,84.3,32.1,129.3c0,65.5-23.3,129.1-65.7,179c-41.9,49.3-99.8,82.4-162.9,93.3l-4.8,0.8
		l0.5,4.8c0,0.5,0.1,1,0.2,1.5c0.1,0.8,0.2,1.4,0.2,2v82.8v5.1h5.2h130.5c23.3,0,42.3,19.1,42.3,42.5c0,23.5-19,42.5-42.3,42.5
		H566.3h-5.2v5.2v92.7c0,23.5-19,42.5-42.3,42.5s-42.3-19.1-42.3-42.5v-92.6v-5.2h-5.2H340.8c-23.3,0-42.3-19.1-42.3-42.5
		c0-23.5,19-42.5,42.3-42.5h130.5h5.2v-5.1v-83.1c0-0.5,0.1-1.1,0.2-1.8c0.1-0.6,0.2-1.1,0.2-1.7l0.4-4.7l-4.7-0.8
		c-63.2-10.8-121-43.9-162.9-93.3c-42.4-49.9-65.7-113.5-65.7-179C244,50.1,367.3-73.8,518.8-73.8"/>
	<path class="st0" d="M1120.3-202.6c15.4,0,27.8,12.4,27.8,27.7V22.3c0,15.3-12.5,27.7-27.8,27.7c-15.4,0-27.8-12.4-27.8-27.7v-98.4
		v-12.7l-8.8,9.1L959.4,48.5l-3.2,3.3l2.9,3.6c39.4,48.3,61,109.1,61,171.1c0,149.9-122.2,271.8-272.4,271.8
		c-8.7,0-17.6-0.4-26.3-1.2c26.4-21.3,49.1-51.9,63.5-86c88-17.5,151.5-94.7,151.5-184.5c0-103.8-84.6-188.2-188.6-188.2
		s-188.6,84.5-188.6,188.2c0,34.4,9.4,67.9,27.3,97.2c-17.1,14.2-38.6,21.5-62.7,21.5c-7.2,0-14.5-0.7-21.9-2
		c-17.6-36.6-26.4-75.9-26.4-116.7c0-149.9,122.2-271.8,272.4-271.8c50.1,0,99.2,13.8,141.8,39.8l3.5,2.1l2.8-3l128.3-132.1l8.5-8.8
		h-12.3h-86.4c-15.4,0-27.8-12.4-27.8-27.7s12.5-27.7,27.8-27.7L1120.3-202.6"/>
</g>
</svg>
