<?xml version="1.0" encoding="utf-8"?>
<!-- Generator: Adobe Illustrator 19.1.0, SVG Export Plug-In . SVG Version: 6.00 Build 0)  -->
<svg version="1.1" id="Layer_1" xmlns="http://www.w3.org/2000/svg" xmlns:xlink="http://www.w3.org/1999/xlink" x="0px" y="0px"
	 viewBox="-41 42.3 512 512" style="enable-background:new -41 42.3 512 512;" xml:space="preserve">
<style type="text/css">
	.st0{fill:#AAB1ED;}
</style>
<g>
	<path class="st0" d="M469.8,298.4C409.4,229.9,325.9,151.2,215,151.2c-44.8,0-85.9,12.5-129.2,39.1c-36.5,22.6-74,54.3-125.5,106.6
		l-1.3,1.3l8.9,9.1c73.5,74,136.9,138,247.1,138c48.7,0,95.9-15.6,144.3-47.8c41.2-27.4,76.3-62.2,104.4-90.3l7.3-7.2L469.8,298.4z
		 M215,403.2c-58.8,0-106.7-47.1-106.7-105s47.9-105,106.7-105s106.7,47.1,106.7,105S273.8,403.2,215,403.2z"/>
	<path class="st0" d="M207.5,259.8c0-9.1,2.7-17.6,7.3-24.7c-35.3,0-63.9,28.4-63.9,63.3s28.7,63.1,63.9,63.1s64-28.2,64-63.1l0,0
		c-7.2,4.6-15.9,7.2-25.1,7.2C228.3,305.5,207.5,285,207.5,259.8z"/>
</g>
</svg>
