<?xml version="1.0" encoding="utf-8"?>
<!-- Generator: Adobe Illustrator 19.1.0, SVG Export Plug-In . SVG Version: 6.00 Build 0)  -->
<svg version="1.1" id="Layer_1" xmlns="http://www.w3.org/2000/svg" xmlns:xlink="http://www.w3.org/1999/xlink" x="0px" y="0px"
	 viewBox="-41 42.3 512 512" style="enable-background:new -41 42.3 512 512;" xml:space="preserve">
<style type="text/css">
	.st0{fill:#C366FF;}
</style>
<g>
	<path class="st0" d="M149.4,190.9L120,295.2c-6.3,22.8,20.7,31.7,27.3,10.3l26.3-96.2h7.4l-45.2,169H178v127c0,23,32,23,32,0v-127
		h10v127c0,23,31,23,31,0v-127h43.4l-46.2-169h8.4l26.3,96.2c6.5,21.9,33.3,12.5,27.3-10.2l-29.4-104.4c-4-11.8-18.2-32.6-42-33.6
		h-47.3C166.9,158.3,152.8,178.9,149.4,190.9z"/>
	<path class="st0" d="M251.6,111.5c0-20.6-16.4-37.3-36.6-37.3s-36.6,16.7-36.6,37.3s16.4,37.3,36.6,37.3S251.6,132.1,251.6,111.5z"
		/>
</g>
</svg>
